<?xml version="1.0" encoding="UTF-8" standalone="no"?>
<!-- Created with Inkscape (http://www.inkscape.org/) -->

<svg
   xmlns:dc="http://purl.org/dc/elements/1.1/"
   xmlns:cc="http://creativecommons.org/ns#"
   xmlns:rdf="http://www.w3.org/1999/02/22-rdf-syntax-ns#"
   xmlns:svg="http://www.w3.org/2000/svg"
   xmlns="http://www.w3.org/2000/svg"
   xmlns:sodipodi="http://sodipodi.sourceforge.net/DTD/sodipodi-0.dtd"
   xmlns:inkscape="http://www.inkscape.org/namespaces/inkscape"
   width="640px"
   height="480px"
   id="svg2993"
   version="1.1"
   inkscape:version="0.48.2 r9819"
   sodipodi:docname="New document 3">
  <defs
     id="defs2995" />
  <sodipodi:namedview
     id="base"
     pagecolor="#ffffff"
     bordercolor="#666666"
     borderopacity="1.0"
     inkscape:pageopacity="0.0"
     inkscape:pageshadow="2"
     inkscape:zoom="1.1737973"
     inkscape:cx="478.29507"
     inkscape:cy="184.84197"
     inkscape:current-layer="layer1"
     inkscape:document-units="px"
     showgrid="false"
     inkscape:snap-global="true"
     showguides="false"
     inkscape:guide-bbox="true"
     inkscape:snap-midpoints="true"
     inkscape:snap-nodes="false"
     inkscape:snap-bbox="true"
     inkscape:snap-bbox-midpoints="true"
     inkscape:snap-grids="false"
     inkscape:snap-to-guides="true"
     inkscape:snap-page="true"
     inkscape:bbox-nodes="true"
     inkscape:window-width="1920"
     inkscape:window-height="1056"
     inkscape:window-x="0"
     inkscape:window-y="24"
     inkscape:window-maximized="1">
    <inkscape:grid
       type="xygrid"
       id="grid3005" />
    <sodipodi:guide
       orientation="0,1"
       position="163.70482,79.96988"
       id="guide3793" />
    <sodipodi:guide
       orientation="1,0"
       position="179.96988,69.35241"
       id="guide3795" />
  </sodipodi:namedview>
  <metadata
     id="metadata2998">
    <rdf:RDF>
      <cc:Work
         rdf:about="">
        <dc:format>image/svg+xml</dc:format>
        <dc:type
           rdf:resource="http://purl.org/dc/dcmitype/StillImage" />
        <dc:title></dc:title>
      </cc:Work>
    </rdf:RDF>
  </metadata>
  <g
     id="layer1"
     inkscape:label="Layer 1"
     inkscape:groupmode="layer">
    <text
       xml:space="preserve"
       style="font-size:140.69508362px;font-style:normal;font-weight:normal;line-height:125%;letter-spacing:0px;word-spacing:0px;fill:#000000;fill-opacity:1;stroke:none;font-family:Sans"
       x="0"
       y="333.93362"
       id="text3001"
       sodipodi:linespacing="125%"><tspan
         sodipodi:role="line"
         id="tspan3003"
         x="0"
         y="333.93362"
         style="font-size:140.69508362px;font-style:normal;font-variant:normal;font-weight:300;font-stretch:normal;text-align:start;line-height:125%;writing-mode:lr-tb;text-anchor:start;font-family:Yanone Kaffeesatz;-inkscape-font-specification:Yanone Kaffeesatz Light">Grapefruit</tspan></text>
    <rect
       style="fill:#d35fbc"
       id="rect3007"
       width="35.173771"
       height="123.10819"
       x="474.84589"
       y="210.82547" />
    <rect
       style="fill:#aa00d4"
       id="rect3009"
       width="35.173771"
       height="70.347542"
       x="527.60651"
       y="263.58606" />
    <rect
       style="fill:#ff80b2"
       id="rect3011"
       width="35.173771"
       height="158.28195"
       x="580.36719"
       y="175.65169" />
    <path
       style="fill:none;stroke:#ab1a64;stroke-width:10.5521307;stroke-linecap:butt;stroke-linejoin:miter;stroke-miterlimit:4;stroke-opacity:1;stroke-dasharray:none;display:inline"
       d="m 492.70695,214.42911 52.06555,52.81472 53.37659,-87.83724"
       id="path3875-2"
       inkscape:connector-curvature="0" />
    <path
       sodipodi:type="arc"
       style="fill:#eed7f4;stroke:#000000;stroke-width:0.23250002;stroke-miterlimit:4;stroke-opacity:1;stroke-dasharray:none;display:inline"
       id="path3015-6-1"
       sodipodi:cx="181.5"
       sodipodi:cy="391.5"
       sodipodi:rx="1.5"
       sodipodi:ry="1.5"
       d="m 183,391.5 a 1.5,1.5 0 1 1 -3,0 1.5,1.5 0 1 1 3,0 z"
       transform="matrix(10.881252,0,0,-10.881252,-1482.5145,4474.353)" />
    <path
       sodipodi:type="arc"
       style="fill:#eed7f4;stroke:#000000;stroke-width:0.23250002;stroke-miterlimit:4;stroke-opacity:1;stroke-dasharray:none;display:inline"
       id="path3015-2-8-9"
       sodipodi:cx="181.5"
       sodipodi:cy="391.5"
       sodipodi:rx="1.5"
       sodipodi:ry="1.5"
       d="m 183,391.5 a 1.5,1.5 0 1 1 -3,0 1.5,1.5 0 1 1 3,0 z"
       transform="matrix(10.881304,0,0,10.881304,-1429.7634,-3992.9271)" />
    <path
       sodipodi:type="arc"
       style="fill:#eed7f4;stroke:#000000;stroke-width:0.23250002;stroke-miterlimit:4;stroke-opacity:1;stroke-dasharray:none;display:inline"
       id="path3015-9-5-6"
       sodipodi:cx="181.5"
       sodipodi:cy="391.5"
       sodipodi:rx="1.5"
       sodipodi:ry="1.5"
       d="m 183,391.5 a 1.5,1.5 0 1 1 -3,0 1.5,1.5 0 1 1 3,0 z"
       transform="matrix(10.881286,0,0,10.881286,-1376.9995,-4080.8545)" />
  </g>
  <g
     inkscape:groupmode="layer"
     id="layer3"
     inkscape:label="Layer#1"
     style="display:none">
    <path
       style="fill:none;stroke:#ab1a64;stroke-width:3;stroke-linecap:butt;stroke-linejoin:miter;stroke-miterlimit:4;stroke-opacity:1;stroke-dasharray:none"
       d="m 180.07795,400.02452 14.80238,15.01537 15.17511,-24.97237"
       id="path3875"
       inkscape:connector-curvature="0" />
    <path
       sodipodi:type="arc"
       style="fill:#eed7f4;stroke:#000000;stroke-width:0.23250002;stroke-miterlimit:4;stroke-opacity:1;stroke-dasharray:none"
       id="path3015-6"
       sodipodi:cx="181.5"
       sodipodi:cy="391.5"
       sodipodi:rx="1.5"
       sodipodi:ry="1.5"
       d="m 183,391.5 a 1.5,1.5 0 1 1 -3,0 1.5,1.5 0 1 1 3,0 z"
       transform="matrix(3.09357,0,0,-3.09357,-381.48297,1611.1327)" />
    <path
       sodipodi:type="arc"
       style="fill:#eed7f4;stroke:#000000;stroke-width:0.23250002;stroke-miterlimit:4;stroke-opacity:1;stroke-dasharray:none"
       id="path3015-2-8"
       sodipodi:cx="181.5"
       sodipodi:cy="391.5"
       sodipodi:rx="1.5"
       sodipodi:ry="1.5"
       d="m 183,391.5 a 1.5,1.5 0 1 1 -3,0 1.5,1.5 0 1 1 3,0 z"
       transform="matrix(3.0935849,0,0,3.0935849,-366.48566,-796.13849)" />
    <path
       sodipodi:type="arc"
       style="fill:#eed7f4;stroke:#000000;stroke-width:0.23250002;stroke-miterlimit:4;stroke-opacity:1;stroke-dasharray:none"
       id="path3015-9-5"
       sodipodi:cx="181.5"
       sodipodi:cy="391.5"
       sodipodi:rx="1.5"
       sodipodi:ry="1.5"
       d="m 183,391.5 a 1.5,1.5 0 1 1 -3,0 1.5,1.5 0 1 1 3,0 z"
       transform="matrix(3.0935798,0,0,3.0935798,-351.48474,-821.13649)" />
  </g>
  <g
     inkscape:groupmode="layer"
     id="layer2"
     inkscape:label="Layer"
     style="display:none">
    <path
       sodipodi:type="arc"
       style="fill:#eed7f4;stroke:#000000;stroke-width:0.23250002;stroke-miterlimit:4;stroke-opacity:1;stroke-dasharray:none"
       id="path3015"
       sodipodi:cx="181.5"
       sodipodi:cy="391.5"
       sodipodi:rx="1.5"
       sodipodi:ry="1.5"
       d="m 183,391.5 a 1.5,1.5 0 1 1 -3,0 1.5,1.5 0 1 1 3,0 z"
       transform="matrix(3.09357,0,0,-3.09357,-381.48296,1611.1327)" />
    <path
       sodipodi:type="arc"
       style="fill:#eed7f4;stroke:#000000;stroke-width:0.23250002;stroke-miterlimit:4;stroke-opacity:1;stroke-dasharray:none"
       id="path3015-2"
       sodipodi:cx="181.5"
       sodipodi:cy="391.5"
       sodipodi:rx="1.5"
       sodipodi:ry="1.5"
       d="m 183,391.5 a 1.5,1.5 0 1 1 -3,0 1.5,1.5 0 1 1 3,0 z"
       transform="matrix(3.0935849,0,0,3.0935849,-366.48565,-796.13847)" />
    <path
       sodipodi:type="arc"
       style="fill:#eed7f4;stroke:#000000;stroke-width:0.23250002;stroke-miterlimit:4;stroke-opacity:1;stroke-dasharray:none"
       id="path3015-9"
       sodipodi:cx="181.5"
       sodipodi:cy="391.5"
       sodipodi:rx="1.5"
       sodipodi:ry="1.5"
       d="m 183,391.5 a 1.5,1.5 0 1 1 -3,0 1.5,1.5 0 1 1 3,0 z"
       transform="matrix(3.0935798,0,0,3.0935798,-351.48473,-821.1365)" />
  </g>
</svg>
